<?xml version="1.0" encoding="UTF-8" standalone="no"?>
<svg width="743px" height="518px" viewBox="0 0 743 518" version="1.1" xmlns="http://www.w3.org/2000/svg" xmlns:xlink="http://www.w3.org/1999/xlink">
    <!-- Generator: Sketch 44.1 (41455) - http://www.bohemiancoding.com/sketch -->
    <title>architecture</title>
    <desc>Created with Sketch.</desc>
    <defs>
        <filter x="-5.4%" y="-8.3%" width="110.8%" height="133.2%" filterUnits="objectBoundingBox" id="filter-1">
            <feOffset dx="0" dy="41" in="SourceAlpha" result="shadowOffsetOuter1"></feOffset>
            <feGaussianBlur stdDeviation="1" in="shadowOffsetOuter1" result="shadowBlurOuter1"></feGaussianBlur>
            <feColorMatrix values="0 0 0 0 0   0 0 0 0 0   0 0 0 0 0  0 0 0 0.1 0" type="matrix" in="shadowBlurOuter1" result="shadowMatrixOuter1"></feColorMatrix>
            <feMerge>
                <feMergeNode in="shadowMatrixOuter1"></feMergeNode>
                <feMergeNode in="SourceGraphic"></feMergeNode>
            </feMerge>
        </filter>
    </defs>
    <g id="Page-1" stroke="none" stroke-width="1" fill="none" fill-rule="evenodd">
        <g id="Artboard" transform="translate(-6.000000, -136.000000)">
            <g id="architecture" transform="translate(6.000000, 16.000000)">
                <g id="components_base_layer" transform="translate(0.000000, 120.000000)" fill-rule="nonzero">
                    <polygon id="Fill-17" fill="#F4F6F9" points="0.484399717 241.340669 325.155141 428.696927 742.587076 187.808374 417.916758 0.451269188"></polygon>
                    <polygon id="Fill-49" fill="#E0E5EE" points="0.516257636 241.314713 0.516257636 261.392711 325.228092 448.748545 325.228092 428.671394"></polygon>
                    <polygon id="Fill-50" fill="#C2CAD8" points="325.227881 428.671352 325.227881 448.748503 742.619145 207.839625 742.619145 187.782375"></polygon>
                    <polygon id="Fill-71" fill="#C1C9D7" points="252.957557 206.449574 255.584564 214.574437 186.008056 254.722388 183.114578 246.362942 168.618801 244.689529 237.90342 204.702059"></polygon>
                    <path d="M410.437984,105.145303 C404.990365,108.290152 404.443019,113.119847 409.221707,115.878947 C414.000818,118.6372 422.368605,118.322164 427.816648,115.178162 L500.76874,73.0828357 C506.217207,69.9388338 506.760316,65.108292 501.976545,62.3483453 C497.19235,59.5879752 488.82075,59.9025871 483.372707,63.0470124 L410.437984,105.145303 Z" id="Fill-72" fill="#C1C9D7"></path>
                    <path d="M336.746509,167.729317 L402.26664,129.961069 C407.715107,126.817067 408.259487,121.986525 403.476139,119.226155 C398.693215,116.466208 390.322039,116.78082 384.873996,119.924822 L319.357254,157.696458 L333.853031,159.370295 L336.746509,167.729317 Z" id="Fill-74" fill="#C1C9D7"></path>
                    <polygon id="Fill-76" fill="#C1C9D7" points="313.563265 161.047773 328.055229 162.715682 330.95252 171.080633 261.378977 211.229007 258.755359 203.104144 243.986333 201.318944"></polygon>
                    <path d="M162.904118,247.973476 L109.223949,278.947716 C103.775906,282.092141 103.228559,286.921836 108.007247,289.680936 C112.786359,292.439613 121.154146,292.124577 126.602613,288.980575 L180.293373,258.006335 L177.395658,249.641384 L162.904118,247.973476 Z" id="Fill-78" fill="#C1C9D7"></path>
                    <polygon id="Fill-80" fill="#C1C9D7" points="0.484399717 241.340754 35.2701118 261.414941 452.702046 20.526388 417.916758 0.451353875"></polygon>
                    <polygon id="Fill-106" fill="#E0E5EE" points="58.4625918 261.410495 452.701792 33.9122141 481.693769 50.6374571 87.4494849 278.142089"></polygon>
                    <polygon id="Fill-108" fill="#E0E5EE" points="58.4625918 261.410495 64.2444651 264.748006 452.691625 40.5876604 452.701792 33.9122141"></polygon>
                    <polygon id="Fill-110" fill="#E0E5EE" points="452.701707 33.9123834 481.694108 50.6376265 475.885969 53.9734442 452.691964 40.5878298"></polygon>
                    <polygon id="Fill-131" fill="#E0E5EE" points="377.335107 157.581326 516.478379 77.3002443 620.837634 137.525347 481.695633 217.807699"></polygon>
                    <polygon id="Fill-133" fill="#E0E5EE" points="377.335107 157.581326 516.478379 77.3002443 516.47033 84.0942523 383.322871 161.036552"></polygon>
                    <polygon id="Fill-135" fill="#E0E5EE" points="516.478507 77.3003713 516.478507 84.0943794 614.874992 140.965456 620.837761 137.52505"></polygon>
                    <polygon id="Fill-167" fill="#E0E5EE" points="493.269208 224.608905 632.432391 144.316391 713.600183 191.157149 574.444201 271.44797"></polygon>
                    <polygon id="Fill-169" fill="#E0E5EE" points="493.289458 224.597303 632.432307 144.316221 632.424257 151.110229 499.276798 228.052529"></polygon>
                    <polygon id="Fill-171" fill="#E0E5EE" points="632.425401 144.257194 632.425401 151.051202 707.637626 194.597216 713.599971 191.157233"></polygon>
                    <polygon id="Fill-195" fill="#4AB0BC" points="128.033042 301.564416 365.737173 164.391086 562.861009 278.14679 325.152642 415.326472"></polygon>
                    <polygon id="Fill-197" fill="#A8B7C7" points="127.933359 301.495778 365.558269 164.361403 365.550643 171.155411 133.921122 304.951004"></polygon>
                    <polygon id="Fill-199" fill="#E0E5EE" points="365.551321 164.302122 365.551321 171.09613 556.898791 281.587153 562.861136 278.146747"></polygon>
                </g>
                <g id="line" transform="translate(72.000000, 217.000000)">
                    <path d="M378.5,0.5 L1.5,219.5" id="Line" stroke="#1AA2DC" stroke-linecap="square"></path>
                    <path d="M1.5,220.5 L1.5,417.5" id="Line" stroke="#1AA2DC" stroke-linecap="square"></path>
                    <path d="M2.5,417.5 L18.5,417.5" id="Line" stroke="#1AA2DC" stroke-linecap="square"></path>
                    <circle id="Oval-2" fill="#1AA2DC" cx="19" cy="417" r="4"></circle>
                </g>
                <g id="components_feed" filter="url(#filter-1)" transform="translate(143.000000, 169.000000)" fill-rule="nonzero">
                    <path d="M237.793729,0.951975153 L0.0900215498,138.125306 L197.208774,251.887361 L434.917989,114.707679 L237.793729,0.951975153 Z M237.793729,2.90781954 L431.528849,114.707679 L197.208774,249.931516 L3.47873818,138.125306 L237.793729,2.90781954 Z" id="Fill-207" fill="#B6DFE4"></path>
                    <polygon id="Fill-201" fill="#B6DFE4" points="0.218017578 138.146728 0.276245117 143.993896 197.081385 257.548495 197.209325 250.887445"></polygon>
                    <polygon id="Fill-203" fill="#6EBFC9" points="197.209283 251.870605 197.081343 257.548495 434.596924 120.521606 434.818359 114.692627"></polygon>
                    <polygon id="Fill-205" fill="#FFFFFF" points="1.78429514 138.12539 237.793856 1.92977032 433.223123 114.707763 197.209325 250.909312"></polygon>
                    <polygon id="Fill-209" fill="#6EBFC9" points="11.6811778 138.112984 29.0738221 148.14923 46.4664663 138.11256 29.0733984 128.075467"></polygon>
                    <polygon id="Fill-211" fill="#6EBFC9" points="40.8574815 128.094436 46.6550296 131.439993 133.619098 81.255372 127.821126 77.9093918"></polygon>
                    <polygon id="Fill-213" fill="#B6DFE4" points="58.2474992 138.132843 64.0454709 141.478399 174.20185 77.910281 168.403878 74.5647243"></polygon>
                    <polygon id="Fill-215" fill="#B6DFE4" points="69.8426377 144.824253 75.6406094 148.169809 197.032412 77.9105774 191.23444 74.5645973"></polygon>
                    <polygon id="Fill-217" fill="#B6DFE4" points="81.4377762 151.515662 87.2353243 154.861219 162.245048 111.365171 156.447923 108.019191"></polygon>
                    <polygon id="Fill-219" fill="#6EBFC9" points="104.27105 164.89645 110.069021 168.242006 197.03309 118.057385 191.235118 114.711405"></polygon>
                    <polygon id="Fill-221" fill="#B6DFE4" points="121.661491 174.934814 127.459039 178.28037 237.615418 114.712252 231.81787 111.366695"></polygon>
                    <polygon id="Fill-223" fill="#B6DFE4" points="133.256629 181.626266 139.054601 184.971823 208.62772 144.823448 202.830172 141.477891"></polygon>
                    <polygon id="Fill-225" fill="#B6DFE4" points="144.851387 188.317676 150.649358 191.663232 231.81715 144.822898 226.019602 141.477341"></polygon>
                    <polygon id="Fill-227" fill="#6EBFC9" points="75.2825467 174.935237 92.6747673 184.971907 110.067835 174.934814 92.6747673 164.898143"></polygon>
                    <polygon id="Fill-229" fill="#6EBFC9" points="168.045392 201.691857 173.843364 205.037414 260.807432 154.852793 255.00946 151.506813"></polygon>
                    <polygon id="Fill-231" fill="#B6DFE4" points="185.435409 211.730221 191.233381 215.075778 301.38976 151.50766 295.591788 148.162103"></polygon>
                    <polygon id="Fill-233" fill="#6EBFC9" points="139.056889 211.730645 156.449109 221.766891 173.841754 211.730221 156.449109 201.693128"></polygon>
                    <polygon id="Fill-235" fill="#B6DFE4" points="40.4967075 148.169979 46.293832 144.822728 81.0778495 164.896492 75.2824196 168.242049"></polygon>
                    <polygon id="Fill-237" fill="#B6DFE4" points="104.270245 184.97322 110.066946 181.625969 144.850963 201.699733 139.055533 205.044866"></polygon>
                    <polygon id="Fill-239" fill="#B6DFE4" points="197.211782 218.429507 203.009754 221.775064 272.582873 181.627113 266.785325 178.281556"></polygon>
                    <polygon id="Fill-241" fill="#B6DFE4" points="208.806497 225.120917 214.604469 228.466474 295.77226 181.626139 289.974712 178.280582"></polygon>
                    <polygon id="Fill-243" fill="#6EBFC9" points="226.200243 14.3331858 231.997791 17.6787425 243.595429 10.9859354 237.797457 7.64037862"></polygon>
                    <polygon id="Fill-245" fill="#6EBFC9" points="289.972933 51.1360035 295.770904 54.4815603 307.368542 47.7891765 301.570571 44.4431964"></polygon>
                    <polygon id="Fill-247" fill="#6EBFC9" points="353.747275 87.9384402 359.545247 91.2839969 371.142461 84.5911897 365.344913 81.2452096"></polygon>
                </g>
            </g>
        </g>
    </g>
</svg>