<svg xmlns="http://www.w3.org/2000/svg" viewBox="0 0 32 32"><title>icon-twitter</title><path d="M13,22.5a9.27,9.27,0,0,0,9.34-9.34c0-.14,0-.28,0-.42A6.79,6.79,0,0,0,24,11a6.45,6.45,0,0,1-1.89.51,3.29,3.29,0,0,0,1.45-1.81,6.54,6.54,0,0,1-2.09.79,3.29,3.29,0,0,0-5.59,3A9.33,9.33,0,0,1,9.11,10.1a3.29,3.29,0,0,0,1,4.38,3.27,3.27,0,0,1-1.49-.41v0a3.29,3.29,0,0,0,2.63,3.22,3.36,3.36,0,0,1-1.48.06,3.3,3.3,0,0,0,3.07,2.28,6.61,6.61,0,0,1-4.08,1.4A6.79,6.79,0,0,1,8,21a9.34,9.34,0,0,0,5,1.47" fill="#fff"/><rect width="32" height="32" fill="none"/></svg>