<svg xmlns="http://www.w3.org/2000/svg" viewBox="0 0 32 32"><title>icon-dribbble</title><path d="M16,8a8,8,0,1,0,8,8A8,8,0,0,0,16,8Zm6.1,8h0a15.64,15.64,0,0,0-3.7-.1c-.2-.5-.5-1-.7-1.5a10.62,10.62,0,0,0,3.1-2.1A5.94,5.94,0,0,1,22.1,16Zm-2.7-5a6.54,6.54,0,0,1-2.6,1.7A26.21,26.21,0,0,0,15.1,10c.3,0,.6-.1.9-.1A6,6,0,0,1,19.4,11Zm-6.3-.4c.5.8,1.2,1.7,1.8,2.7a17.7,17.7,0,0,1-4.7.6A6.7,6.7,0,0,1,13.1,10.6ZM9.9,16v-.1H10a20,20,0,0,0,5.9-.8c.2.4.4.8.6,1.3A11,11,0,0,0,11.4,20,6.37,6.37,0,0,1,9.9,16Zm2.9,5.2a8.63,8.63,0,0,1,4.3-3,19,19,0,0,1,.9,3.6,7.12,7.12,0,0,1-2.1.4A8.08,8.08,0,0,1,12.8,21.2Zm7-.5a24.6,24.6,0,0,0-.7-2.9,7.82,7.82,0,0,1,2.6.2A5.8,5.8,0,0,1,19.8,20.7Z" fill="#fff"/><rect width="32" height="32" fill="none"/></svg>