<svg xmlns="http://www.w3.org/2000/svg" viewBox="0 0 32 32"><title>icon-github</title><rect width="32" height="32" fill="none"/><path d="M16,8.2a8,8,0,0,0-2.53,15.59c.4.07.55-.17.55-.39s0-.69,0-1.36c-2.23.49-2.7-1.07-2.7-1.07a2.12,2.12,0,0,0-.89-1.17c-.72-.5.06-.49.06-.49a1.68,1.68,0,0,1,1.22.83A1.7,1.7,0,0,0,14,20.8a1.71,1.71,0,0,1,.51-1.07c-1.78-.2-3.64-.89-3.64-4a3.11,3.11,0,0,1,.82-2.15,2.85,2.85,0,0,1,.08-2.11s.67-.22,2.2.82a7.54,7.54,0,0,1,4,0c1.53-1,2.2-.82,2.2-.82a2.85,2.85,0,0,1,.08,2.11,3.11,3.11,0,0,1,.82,2.15c0,3.07-1.87,3.75-3.65,4A1.88,1.88,0,0,1,18,21.21c0,1.07,0,1.93,0,2.19s.15.47.55.39A8,8,0,0,0,16,8.2Z" fill="#fff" fill-rule="evenodd"/></svg>