<?xml version="1.0" encoding="utf-8"?>
<!-- Generator: Adobe Illustrator 19.1.0, SVG Export Plug-In . SVG Version: 6.00 Build 0)  -->
<svg version="1.2" baseProfile="tiny" id="Layer_1" xmlns="http://www.w3.org/2000/svg" xmlns:xlink="http://www.w3.org/1999/xlink"
	 x="0px" y="0px" viewBox="0 0 68 29" xml:space="preserve">
<path fill="#B1B1B1" d="M68,8.7c0-2.5-1-4.5-2.7-6.3C63.5,0.7,61.2,0,58.8,0H45.5c-2.5,0-4.9,0.7-6.6,2.4C37.1,4.1,36,6.2,36,8.7
	c0,1.9,0,12.3,0,12.3h-6.8c-0.9,0-1.2-0.9-1.2-1.7v-1.8c1-0.4,2.7-1.2,3.8-2.3c1.8-1.7,2.7-4.1,2.7-6.5c0-2.5-1-4.5-2.8-6.3
	C29.9,0.7,27.6,0,25.1,0H1v7h8v22h8V7h0.1h8h0.1c0.8,0,1.5,0.7,1.5,1.5c0,0.8-0.7,1.5-1.5,1.5h-0.1H20v9.3c0,5.1,4.1,9.7,9.2,9.7
	h16.2h1.8H51v-8h-5.6c-0.8,0-1.5-0.7-1.5-1.5s0.7-1.5,1.5-1.5H51v-8h-5.6C44.6,10,44,9.3,44,8.5S44.6,7,45.4,7h13.3
	c0.8,0,1.5,0.7,1.5,1.5S59.6,10,58.8,10H54v8h4.8c0.8,0,1.5,0.7,1.5,1.5S59.6,21,58.8,21H54v8h4.8c2.5,0,4.8-1.2,6.5-2.9
	c1.8-1.7,2.7-4.2,2.7-6.6c0-1.9-0.6-3.8-1.7-5.4C67.4,12.5,68,10.6,68,8.7z"/>
</svg>
